<svg width="186" height="144" viewBox="0 0 186 144" fill="none" xmlns="http://www.w3.org/2000/svg">
<path d="M44.7476 13.9089C43.7015 14.8335 42.8498 15.2913 41.4039 15.2522C40.3889 15.2944 40.1445 15.3098 38.9637 15.1242L37.7815 15.0325L22.6578 13.8254L21.5574 15.9515L29.6551 25.2505C31.5223 27.3993 32.8519 29.0334 33.6247 30.1901C34.3782 31.3841 34.72 32.4596 34.5937 33.4346L37.778 27.3741C37.6055 27.6159 36.9184 28.3952 36.5568 28.7283L35.8736 29.2259C35.3615 29.5757 34.8547 29.5498 34.2772 29.2036C33.4026 28.609 31.4415 26.4589 28.3179 22.8086C25.1943 19.1582 23.4004 17.1419 22.9748 16.6851C23.1433 16.725 24.1196 16.7575 25.9218 16.839C27.7047 16.9579 29.413 17.0382 31.084 17.0991C32.773 17.2166 34.48 17.3908 36.2795 17.6602C38.0791 17.9295 39.296 18.2283 39.9673 18.5758C40.9744 19.0971 41.3768 19.8729 41.1566 20.8467L44.7476 13.9089Z" fill="white"/>
<path d="M42.8033 39.8159C43.5071 37.3904 39.6918 36.5538 39.2341 39.0333C39.0092 40.0589 39.6318 41.1414 40.6164 41.3573C41.56 41.5642 42.5784 40.8415 42.8033 39.8159ZM33.3681 36.3711C32.8309 36.4683 32.1795 36.4975 31.2089 36.4137C30.2384 36.3298 29.614 36.2359 28.1781 35.9211L24.3217 35.0755L22.1474 34.5987C19.1525 33.942 17.3514 33.3321 16.6618 32.751C16.1915 32.3468 15.9392 31.7325 15.969 31.0081L14.5118 37.6542C14.8378 36.9518 15.2739 36.5314 15.8202 36.3932C16.5075 36.1999 18.2666 36.4137 21.0563 37.0254L26.7498 38.3168L34.4716 39.9669C34.7685 38.6131 35.0412 36.781 35.3398 34.4386C34.9098 35.4192 34.2556 36.0497 33.3681 36.3711Z" fill="white"/>
<path d="M33.1036 54.7914C33.2204 57.0144 31.8868 58.8508 29.9177 59.7954C27.9507 60.7819 26.0875 61.3424 24.2862 61.4791L23.621 48.8126C25.5194 48.9231 27.3869 49.2456 29.4508 50.1046C31.5147 50.9635 32.9891 52.6104 33.1036 54.7914ZM24.0144 64.3112C26.7384 64.1261 28.999 63.1242 30.8844 61.3849C32.7697 59.6456 33.6596 57.3698 33.512 54.5597C33.3534 51.5399 32.2256 49.2859 30.0846 47.7581C27.9457 46.2722 25.4712 45.6031 22.5772 45.7551C19.809 45.9005 17.5065 46.9046 15.6719 48.8095C13.8373 50.7143 12.9981 53.1557 13.1545 56.1336C13.3396 59.6567 15.454 63.0785 18.7143 64.2952L18.701 64.0436C15.8867 62.509 13.8826 59.5861 13.7328 56.7341C13.4729 51.7849 16.6144 49.1385 23.1994 48.7926L24.0144 64.3112Z" fill="white"/>
<path d="M18.3042 79.9948L19.334 82.0155L31.5523 80.7384L35.0433 80.3735C34.9126 80.4872 34.6338 80.8651 34.5032 80.9788L24.6166 92.3811L25.6273 94.3644L37.8647 93.1247C40.7173 92.8023 42.8201 92.6734 44.1913 92.6817C45.5626 92.69 46.5794 93.0203 47.2793 93.6535L44.3417 87.7968C44.459 88.397 44.8257 89.6715 44.6803 90.3112C44.6663 90.9312 44.35 91.3281 43.7322 91.5958C42.7395 91.9603 39.8685 92.3392 35.0635 92.8081C30.296 93.2579 27.6121 93.5415 27.0493 93.6397L28.9103 91.3714L32.186 87.4393C33.2845 86.1724 34.4205 84.8864 35.7068 83.618C36.9931 82.3496 37.9448 81.5346 38.6184 81.1914C39.6288 80.6765 40.4373 80.783 41.1188 81.4727L37.7242 74.8118C37.9984 76.2748 37.3532 77.8764 35.7697 79.5791C34.3815 79.8151 31.7542 80.117 27.8502 80.5039C23.9836 80.8716 21.6189 81.134 20.756 81.2909C20.7744 81.2344 21.3886 80.4971 22.5796 79.0416L25.9111 75.034C26.9347 73.8052 28.0897 72.5566 29.357 71.2508C30.6433 69.9824 31.6324 69.1484 32.306 68.8051C33.3164 68.2902 34.1249 68.3967 34.8064 69.0865L31.4118 62.4256C31.854 63.7558 30.8905 65.4725 30.1647 66.3609L29.122 67.5523L28.1908 68.5925L18.3042 79.9948Z" fill="white"/>
<path d="M56.1832 121.846C59.0453 123.351 61.6763 123.312 64.1329 121.709L63.8355 121.553C61.7036 122.899 59.4482 122.946 57.0321 121.675C52.423 119.251 53.668 113.546 55.5843 109.904C56.6598 107.859 57.8763 106.269 59.6169 104.764C61.3948 103.279 63.6932 102.97 65.9234 104.143C67.2244 104.827 67.8584 105.967 67.843 107.62C67.9077 108.129 67.8921 108.88 67.9959 109.314C68.1564 109.731 68.3579 109.979 68.7668 110.195C69.5845 110.625 70.1694 110.505 70.5018 109.873C71.6751 107.643 67.6567 104.817 65.984 103.937C63.3078 102.529 60.8136 102.309 58.5388 103.295C56.264 104.281 54.3845 106.14 52.9571 108.854C51.6665 111.307 51.2776 113.76 51.771 116.25C52.3212 118.722 53.7671 120.575 56.1832 121.846Z" fill="white"/>
<path d="M82.9409 109.711C85.3884 110.098 87.0318 111.804 87.664 113.988C88.2962 116.172 88.3279 118.388 87.9797 120.587C87.6315 122.785 86.9297 124.8 85.7235 126.778C84.5304 128.673 82.4469 129.746 79.9994 129.358C77.5104 128.964 75.867 127.258 75.2348 125.074C74.6026 122.89 74.5709 120.674 74.9191 118.476C75.2673 116.277 75.9692 114.262 77.1622 112.367C78.3684 110.39 80.452 109.316 82.9409 109.711ZM90.7176 121.02C91.1775 118.116 90.6874 115.572 89.2888 113.395C87.8967 111.176 85.8078 109.867 82.9454 109.414C80.0831 108.96 77.6919 109.56 75.7719 111.212C73.8518 112.864 72.6411 115.138 72.1812 118.042C71.7279 120.904 72.1765 123.442 73.5686 125.661C74.9672 127.838 77.0976 129.154 79.9599 129.607C82.7808 130.054 85.172 129.455 87.092 127.803C89.0535 126.157 90.2643 123.883 90.7176 121.02Z" fill="white"/>
<path d="M93.8846 99.818C94.3902 99.8038 94.8633 99.8777 95.2669 100.086L95.3133 100.123C95.7077 100.248 95.9397 100.434 96.0558 100.716C96.4921 101.217 96.9199 103.156 97.2977 106.537L99.1116 122.774C99.48 126.071 99.4951 128.098 99.1987 128.849C99.0413 129.332 98.5407 129.768 97.7709 130.066L104.533 129.31C103.8 129.181 103.262 128.903 102.909 128.393C102.449 127.683 102.017 125.703 101.658 122.489L99.0278 98.9476C97.6503 99.1015 95.9483 99.3761 93.9264 99.8133L93.8846 99.818Z" fill="white"/>
<path d="M103.346 98.5986C103.839 98.486 104.318 98.4662 104.754 98.592L104.807 98.6193C105.218 98.6649 105.482 98.8015 105.651 99.0563C106.176 99.4622 106.974 101.28 108.004 104.522L112.951 120.093C113.955 123.256 114.366 125.241 114.222 126.036C114.161 126.54 113.755 127.065 113.058 127.507L119.543 125.447C118.799 125.463 118.217 125.295 117.771 124.864C117.182 124.258 116.372 122.4 115.393 119.318L108.221 96.7416C106.9 97.1612 105.284 97.7626 103.386 98.5859L103.346 98.5986Z" fill="white"/>
<path d="M125.212 100.739C127.079 99.5265 129.336 99.7634 131.138 100.997C132.976 102.207 134.393 103.541 135.412 105.033L124.774 111.94C123.92 110.241 123.266 108.462 122.979 106.245C122.691 104.028 123.38 101.928 125.212 100.739ZM138 103.852C136.478 101.586 134.481 100.129 132.032 99.365C129.583 98.6015 127.167 98.9684 124.807 100.501C122.271 102.148 120.882 104.251 120.629 106.869C120.412 109.465 121.069 111.942 122.647 114.373C124.157 116.698 126.178 118.19 128.744 118.827C131.311 119.463 133.845 118.97 136.346 117.346C139.305 115.424 141.212 111.883 140.636 108.451L140.425 108.588C140.502 111.793 138.973 114.989 136.577 116.545C132.421 119.244 128.558 117.846 124.967 112.315L138 103.852Z" fill="white"/>
<path d="M155.306 99.6907C157.308 97.1511 157.749 94.557 156.621 91.8494L156.413 92.1132C157.348 94.4549 156.983 96.6811 155.293 98.8249C152.069 102.915 146.687 100.65 143.455 98.102C141.641 96.6718 140.299 95.1857 139.137 93.1999C138.001 91.181 138.115 88.8647 139.676 86.8858C140.586 85.7315 141.823 85.316 143.445 85.6325C143.957 85.6617 144.693 85.8139 145.138 85.7911C145.577 85.7092 145.858 85.5564 146.144 85.1936C146.716 84.468 146.706 83.8712 146.145 83.4291C144.166 81.8688 140.655 85.3046 139.485 86.7888C137.612 89.1635 136.941 91.5756 137.496 93.9921C138.051 96.4086 139.536 98.5955 141.943 100.494C144.12 102.21 146.461 103.04 148.999 103.009C151.531 102.918 153.615 101.834 155.306 99.6907Z" fill="white"/>
<path d="M145.283 79.7256L146.754 76.1073L161.539 82.1196C163.834 83.0531 165.349 82.6718 166.061 80.921C166.441 79.9873 166.537 79.5277 166.567 78.4515C166.612 77.3365 165.942 75.9756 164.679 74.5098L164.28 74.7103C164.878 75.1349 165.287 75.8002 165.586 76.7379C165.885 77.6755 165.888 78.4476 165.619 79.109C165.192 80.1595 164.231 80.4036 162.714 79.7865L147.735 73.6951L149.855 68.4817L149.272 68.2444L147.152 73.4578L141.082 70.9896L140.861 71.5343L142.61 72.4724C142.984 72.6696 143.465 73.0467 144.032 73.5491C144.614 74.0126 144.954 74.5137 145.162 75.0063C145.484 75.9986 145.63 77.6451 144.894 79.5673L145.283 79.7256Z" fill="white"/>
<path d="M142.57 59.9261C141.993 62.385 145.847 63.0217 146.175 60.5217C146.346 59.4858 145.668 58.4372 144.673 58.2729C143.72 58.1154 142.741 58.8902 142.57 59.9261ZM152.172 62.8746C152.703 62.7496 153.352 62.6865 154.326 62.7197C155.299 62.7528 155.928 62.814 157.378 63.0537L161.273 63.6972L163.469 64.06C166.494 64.5598 168.325 65.075 169.044 65.6195C169.535 65.9985 169.819 66.5988 169.826 67.3238L170.936 60.6108C170.647 61.3293 170.233 61.7718 169.695 61.9383C169.018 62.1671 167.25 62.0453 164.433 61.5798L158.68 60.5868L150.882 59.3412C150.656 60.7087 150.479 62.5525 150.303 64.9073C150.682 63.9055 151.302 63.2418 152.172 62.8746Z" fill="white"/>
<path d="M151.425 45.1887C151.166 42.7242 152.389 40.6955 154.335 39.5199C156.281 38.3443 158.413 37.7403 160.627 37.5079C162.841 37.2755 164.969 37.4322 167.191 38.0857C169.33 38.7481 170.906 40.483 171.165 42.9475C171.428 45.4537 170.205 47.4825 168.259 48.6581C166.313 49.8336 164.181 50.4376 161.967 50.67C159.753 50.9024 157.625 50.7457 155.486 50.0834C153.264 49.4299 151.688 47.6949 151.425 45.1887ZM160.338 34.7511C157.414 35.058 155.083 36.1895 153.342 38.1038C151.558 40.0225 150.834 42.379 151.137 45.2611C151.439 48.1433 152.637 50.2981 154.729 51.7254C156.822 53.1527 159.332 53.7338 162.256 53.4269C165.138 53.1243 167.473 52.0345 169.257 50.1159C170.998 48.2016 171.718 45.8033 171.415 42.9212C171.117 40.0808 169.92 37.926 167.827 36.4987C165.73 35.0296 163.22 34.4485 160.338 34.7511Z" fill="white"/>
<path d="M150.979 32.3181C151.338 31.9069 151.81 31.44 152.658 30.9752C153.469 30.4351 154.016 30.1188 155.334 29.4689L158.875 27.7233L160.872 26.739C163.622 25.3834 165.41 24.7361 166.293 24.7223C166.931 24.7822 167.493 25.0671 167.922 25.6518L164.932 19.5867C165.134 20.2829 165.056 20.8835 164.696 21.3886C164.298 22.0062 162.79 22.9369 160.229 24.1996L154.974 26.7433L151.451 28.5266C150.363 28.3138 149.22 27.8002 148.023 26.9858C146.807 26.1336 145.948 25.1521 145.372 23.9842C144.425 22.063 144.774 20.2054 145.984 18.8599C147.156 17.5329 148.344 16.7131 149.737 16.026L154.164 13.797C157.14 12.33 159.041 11.6269 159.849 11.6503C160.431 11.6911 160.955 11.9946 161.478 12.5799L158.451 6.43941C158.578 7.17268 158.5 7.7733 158.215 8.24127C157.723 8.95226 156.12 9.97629 153.37 11.3319L148.059 13.9504C144.028 15.9374 142.449 19.4785 144.696 24.0368C145.81 26.2971 148.467 28.1716 150.736 28.8794L147.91 30.2722C148.486 31.44 149.435 33.0795 150.681 35.1339C150.405 34.0993 150.505 33.1607 150.979 32.3181Z" fill="white"/>
</svg>
