<svg width="78" height="75" viewBox="0 0 78 75" fill="none" xmlns="http://www.w3.org/2000/svg">
<g clip-path="url(#clip0)">
<path d="M17.481 74.9998H26.7896L12.1016 65.9481L0.0283203 59.1646C0.555582 67.9817 8.18146 74.9998 17.481 74.9998Z" fill="#FDE494"/>
<path d="M51.1034 69.8278L40.5908 67.2416H17.4828C12.2922 67.2416 8.06904 63.1809 8.06904 58.1899V53.2275L4.03452 49.0645L0 49.7503V58.1897C0 58.5172 0.0109688 58.8421 0.0301641 59.1649L26.7915 75.0001H58.5958L51.1034 69.8278Z" fill="#FEA150"/>
<path d="M67.2834 64.4734C65.5705 66.178 63.1712 67.2411 60.5172 67.2411H40.5908L58.5959 74.9998H60.5172C66.7941 74.9998 72.308 71.8022 75.3921 67.0124L71.2755 64.6549L67.2834 64.4734Z" fill="#FF5D4A"/>
<path d="M69.9318 47.7557V58.1895C69.9318 60.6288 68.9213 62.844 67.2842 64.4735L75.393 67.0126C77.0453 64.4461 78.0008 61.4233 78.0008 58.1894V48.9894L73.8272 46.7349L69.9318 47.7557Z" fill="#E45261"/>
<path d="M77.9997 21.8542L73.7032 20.8704L69.9307 23.0421V47.7561L77.9997 48.9898V21.8542Z" fill="#FF4D95"/>
<path d="M78.0005 16.8103C78.0005 8.36797 71.4942 1.36016 63.0501 0.177002L52.4722 4.40923L47.1123 7.7586H60.5176C65.7083 7.7586 69.9314 11.8193 69.9314 16.8103V23.0419L78.0005 21.8539V16.8103Z" fill="#CB319C"/>
<path d="M48.4053 0L38.399 3.60879L30.5068 7.75869H47.1126L63.0504 0.176953C62.2233 0.061084 61.3781 0 60.518 0H48.4053Z" fill="#8A3293"/>
<path d="M38.9997 59.4825C41.7964 59.4825 44.477 58.9962 46.956 58.1085L33.8513 52.3887L19.9609 49.6558C24.0617 55.5745 31.0645 59.4825 38.9997 59.4825Z" fill="#FF5D4A"/>
<path d="M50.1442 44.7303C47.7245 48.1676 43.6318 50.4312 38.9998 50.4312C32.8644 50.4312 27.6794 46.4588 26.0708 41.0495L22.463 38.8813L16.2402 39.5461C16.5987 43.2587 17.9181 46.7073 19.9612 49.656L46.9562 58.1089C52.7915 56.0194 57.5041 51.6992 59.9752 46.2337L55.1379 43.8775L50.1442 44.7303Z" fill="#E45261"/>
<path d="M25.5515 37.5001C25.5515 34.2953 26.773 31.3614 28.7883 29.0998L23.0514 28.3281L17.2242 30.8025C16.5196 32.9151 16.1377 35.1654 16.1377 37.5001C16.1377 38.1903 16.1749 38.8719 16.2399 39.5459L26.0707 41.0491C25.7351 39.9206 25.5515 38.731 25.5515 37.5001Z" fill="#FF4D95"/>
<path d="M61.8612 37.5C61.8612 32.7922 60.3136 28.4258 57.6827 24.8452L51.9855 24.0676L46.1328 26.5457C49.9221 28.8354 52.4475 32.8882 52.4475 37.5C52.4475 40.1762 51.5974 42.6651 50.1436 44.7301L59.9744 46.2334C61.1856 43.5547 61.8612 40.6025 61.8612 37.5Z" fill="#FF4D95"/>
<path d="M38.9992 24.5688C41.6186 24.5688 44.0634 25.2952 46.1328 26.5456L57.6828 24.8451C53.5396 19.2064 46.7095 15.5171 38.9992 15.5171C28.8211 15.5171 20.1765 21.9461 17.2236 30.802L28.7877 29.0993C31.256 26.3292 34.9168 24.5688 38.9992 24.5688Z" fill="#CB319C"/>
<path d="M60.516 21.9827C63.4821 21.9827 65.8952 19.6624 65.8952 16.8103C65.8952 13.9583 63.4821 11.6379 60.516 11.6379C57.5498 11.6379 55.1367 13.9583 55.1367 16.8103C55.1367 19.6624 57.5498 21.9827 60.516 21.9827Z" fill="#CB319C"/>
<path d="M8.06904 45.9326L4.18488 44.0697L0 43.406V49.7507L8.06904 53.2278V45.9326Z" fill="#FF5D4A"/>
<path d="M0 37.0626V43.4057L8.06904 45.9323V38.2965L3.87654 36.8472L0 37.0626Z" fill="#E45261"/>
<path d="M8.06904 32.1503L3.9227 32.1143L0 33.3384V37.0627L8.06904 38.2965V32.1503Z" fill="#FF4D95"/>
<path d="M8.06904 26.3318L3.79504 26.7487L0 30.1704V33.3386L8.06904 32.1504V26.3318Z" fill="#CB319C"/>
<path d="M0 30.1702L8.06904 26.3315V17.4846L3.33633 17.9198L0 20.9825V30.1702Z" fill="#8A3293"/>
<path d="M31.2395 0L12.8283 6.80874L0.211301 14.1984C0.072668 15.05 0 15.9221 0 16.8104V20.9826L8.06904 17.4848V16.8103C8.06904 11.8192 12.2922 7.75854 17.4828 7.75854H30.5062L48.4045 0H31.2395Z" fill="#523494"/>
<path d="M17.4825 0C8.76626 0 1.51972 6.16524 0.210938 14.1984L31.2391 0H17.4825Z" fill="#2D2D87"/>
</g>
<defs>
<clipPath id="clip0">
<rect width="78" height="75" fill="white"/>
</clipPath>
</defs>
</svg>
