<svg width="30" height="29" viewBox="0 0 30 29" fill="none" xmlns="http://www.w3.org/2000/svg">
<g clip-path="url(#clip0)">
<path d="M6.72428 28.9999H10.3045L4.65527 25.4999L0.0117188 22.877C0.214512 26.2863 3.14754 28.9999 6.72428 28.9999Z" fill="#FDE494"/>
<path d="M19.6552 27.0002L15.6118 26.0002H6.72416C4.72775 26.0002 3.10348 24.43 3.10348 22.5002V20.5814L1.55174 18.9717L0 19.2369V22.5001C0 22.6268 0.00421875 22.7524 0.0116016 22.8772L10.3044 29.0001H22.5369L19.6552 27.0002Z" fill="#FEA150"/>
<path d="M25.8777 24.9297C25.2189 25.5888 24.2961 25.9999 23.2753 25.9999H15.6113L22.5364 28.9999H23.2753C25.6895 28.9999 27.8103 27.7635 28.9964 25.9114L27.4131 24.9999L25.8777 24.9297Z" fill="#FF5D4A"/>
<path d="M26.8972 18.4655V22.4999C26.8972 23.4431 26.5086 24.2997 25.8789 24.9298L28.9977 25.9115C29.6332 24.9192 30.0007 23.7503 30.0007 22.4999V18.9426L28.3955 18.0708L26.8972 18.4655Z" fill="#E45261"/>
<path d="M30 8.45022L28.3474 8.06982L26.8965 8.90958V18.4656L30 18.9427V8.45022Z" fill="#FF4D95"/>
<path d="M29.9992 6.4999C29.9992 3.23553 27.4968 0.525846 24.249 0.0683594L20.1806 1.70482L18.1191 2.99991H23.275C25.2714 2.99991 26.8957 4.57004 26.8957 6.4999V8.90945L29.9992 8.4501V6.4999Z" fill="#CB319C"/>
<path d="M18.6164 0L14.7679 1.3954L11.7324 3.00003H18.1193L24.2492 0.0684219C23.9311 0.0236191 23.606 0 23.2752 0H18.6164Z" fill="#8A3293"/>
<path d="M15.0003 22.9999C16.076 22.9999 17.107 22.8118 18.0604 22.4686L13.0202 20.2569L7.67773 19.2002C9.25496 21.4888 11.9483 22.9999 15.0003 22.9999Z" fill="#FF5D4A"/>
<path d="M19.2861 17.2958C18.3554 18.6249 16.7813 19.5001 14.9998 19.5001C12.64 19.5001 10.6458 17.9641 10.0271 15.8725L8.63947 15.0342L6.24609 15.2912C6.38396 16.7268 6.89145 18.0602 7.67725 19.2004L18.0599 22.4688C20.3043 21.6609 22.1168 19.9904 23.0672 17.8771L21.2067 16.966L19.2861 17.2958Z" fill="#E45261"/>
<path d="M9.82771 14.5001C9.82771 13.2609 10.2975 12.1265 11.0727 11.252L8.86613 10.9536L6.62492 11.9104C6.35393 12.7273 6.20703 13.5974 6.20703 14.5001C6.20703 14.767 6.22133 15.0306 6.24635 15.2912L10.0274 15.8724C9.89832 15.436 9.82771 14.9761 9.82771 14.5001Z" fill="#FF4D95"/>
<path d="M23.7935 14.5C23.7935 12.6797 23.1983 10.9913 22.1864 9.6068L19.9952 9.30615L17.7441 10.2643C19.2015 11.1497 20.1728 12.7168 20.1728 14.5C20.1728 15.5348 19.8459 16.4972 19.2867 17.2957L23.0678 17.8769C23.5337 16.8412 23.7935 15.6996 23.7935 14.5Z" fill="#FF4D95"/>
<path d="M15.0002 9.49999C16.0077 9.49999 16.948 9.78087 17.7439 10.2644L22.1862 9.60682C20.5927 7.42655 17.9657 6 15.0002 6C11.0856 6 7.76072 8.4859 6.625 11.9102L11.0727 11.2518C12.0221 10.1807 13.4301 9.49999 15.0002 9.49999Z" fill="#CB319C"/>
<path d="M23.276 8.49996C24.4168 8.49996 25.3449 7.60278 25.3449 6.49998C25.3449 5.39719 24.4168 4.5 23.276 4.5C22.1352 4.5 21.207 5.39719 21.207 6.49998C21.207 7.60278 22.1352 8.49996 23.276 8.49996Z" fill="#CB319C"/>
<path d="M3.10348 17.7606L1.60957 17.0403L0 16.7837V19.237L3.10348 20.5814V17.7606Z" fill="#FF5D4A"/>
<path d="M0 14.3309V16.7835L3.10348 17.7605V14.808L1.49098 14.2476L0 14.3309Z" fill="#E45261"/>
<path d="M3.10348 12.4314L1.50873 12.4175L0 12.8908V14.3309L3.10348 14.8079V12.4314Z" fill="#FF4D95"/>
<path d="M3.10348 10.1816L1.45963 10.3428L0 11.6659V12.8909L3.10348 12.4315V10.1816Z" fill="#CB319C"/>
<path d="M0 11.6658L3.10348 10.1816V6.76074L1.2832 6.92902L0 8.11326V11.6658Z" fill="#8A3293"/>
<path d="M12.0152 0L4.93395 2.63271L0.0812695 5.49006C0.0279492 5.81931 0 6.15655 0 6.50002V8.11326L3.10348 6.76079V6.49996C3.10348 4.57011 4.72775 2.99997 6.72416 2.99997H11.7332L18.6171 0H12.0152Z" fill="#523494"/>
<path d="M6.72492 0C3.37254 0 0.58541 2.38389 0.0820312 5.49006L12.0159 0H6.72492Z" fill="#2D2D87"/>
</g>
<defs>
<clipPath id="clip0">
<rect width="30" height="29" fill="white"/>
</clipPath>
</defs>
</svg>
